<svg id="svg" fill="#000000" stroke="#000000" width="200px" height="200px" version="1.1" viewBox="144 144 512 512" xmlns="http://www.w3.org/2000/svg">
    <g id="IconSvg_bgCarrier" stroke-width="0"></g>
    <g id="IconSvg_tracerCarrier" stroke-linecap="round" stroke-linejoin="round" stroke="#CCCCCC"></g>
     <g id="IconSvg_iconCarrier">
      <path xmlns="http://www.w3.org/2000/svg" d="m624.2 380.43c0-34.52-28.082-62.598-62.598-62.598-1.7148 0-3.3945 0.125-5.0742 0.26172l-2.7188 0.21484v-13.609c0-45.902-37.344-83.246-83.246-83.246h-141.12c-45.902 0-83.246 37.348-83.246 83.246v13.609l-2.7188-0.21484c-1.6758-0.13672-3.3594-0.26172-5.0742-0.26172-34.516 0-62.598 28.082-62.598 62.598 0 25.137 14.984 47.73 38.168 57.566l1.5352 0.64844v16.43c0 14.078 5.4883 27.352 15.445 37.379l2.5352 2.5508-3.2578 1.5117c-8.9375 4.1406-14.723 13.125-14.723 22.883 0 13.934 11.336 25.277 25.277 25.277h31.906v26.852c0 3.8633 3.1445 7.0117 7.0078 7.0117 3.8711 0 7.0117-3.1484 7.0117-7.0117v-26.852h228.18v26.852c0 3.8633 3.1445 7.0117 7.0078 7.0117 3.8711 0 7.0117-3.1484 7.0117-7.0117v-26.852h30.32c13.941 0 25.277-11.336 25.277-25.277 0-9.7578-5.7773-18.742-14.723-22.883l-3.2578-1.5117 2.5352-2.5508c9.9648-10.027 15.445-23.301 15.445-37.379v-16.43l1.5352-0.64844c23.172-9.8359 38.156-32.43 38.156-57.566zm-363.98-75.727c0-38.172 31.055-69.227 69.223-69.227h141.12c38.168 0 69.223 31.055 69.223 69.227v17.07l-1.5703 0.63672c-23.824 9.6445-39.211 32.414-39.211 58.023 0 0.59766 0.050781 1.1836 0.10156 1.7734l0.22656 3.9258h-198.65l0.22656-3.9258c0.050781-0.58984 0.10156-1.1758 0.10156-1.7734 0-25.609-15.391-48.379-39.211-58.023l-1.5781-0.63672zm-42.594 119.59-2.6016-1.4375c-15.543-8.5898-25.195-24.844-25.195-42.414 0-26.789 21.789-48.578 48.578-48.578 26.789 0 48.582 21.789 48.582 48.578 0 0.86719-0.066406 1.7148-0.13281 2.5586l-0.22656 3.1328h-18.043c-22.363 0-42.445 14.211-49.969 35.363zm352.85 95.113c0 6.207-5.0469 11.254-11.25 11.254h-318.44c-6.2031 0-11.25-5.0469-11.25-11.254 0-6.207 5.0469-11.254 11.25-11.254h318.43c6.2031-0.003907 11.254 5.0469 11.254 11.254zm0-64.324c0 21.527-17.523 39.047-39.051 39.047h-262.84c-21.527 0-39.051-17.516-39.051-39.047v-15.883c0-21.531 17.523-39.051 39.051-39.051h262.84c21.527 0 39.051 17.516 39.051 39.051zm14.508-32.227-2.5977 1.4375-0.99219-2.7969c-7.5234-21.148-27.605-35.363-49.969-35.363h-18.043l-0.22656-3.1328c-0.070313-0.84766-0.13281-1.6914-0.13281-2.5586 0-26.789 21.789-48.578 48.582-48.578 26.781 0 48.578 21.789 48.578 48.578-0.003906 17.57-9.6562 33.824-25.199 42.414z"></path>

      </g>
      </svg>