<svg id="svg" fill="#000000" stroke="#000000" width="100" height="100" version="1.1" viewBox="143 143 514 514" xmlns="http://www.w3.org/2000/svg">
    <g id="IconSvg_bgCarrier" stroke-width="0"></g>
    <g id="IconSvg_tracerCarrier" stroke-linecap="round" stroke-linejoin="round" stroke="#CCCCCC" stroke-width="0">
      <g xmlns="http://www.w3.org/2000/svg">
  <path d="m313.41 529.89c-2.1719 0-3.9375 1.7617-3.9375 3.9375v15.742c0 2.1758 1.7656 3.9375 3.9375 3.9375s3.9375-1.7617 3.9375-3.9375v-15.742c0-1.0469-0.41797-2.0469-1.1562-2.7852-0.73438-0.73828-1.7383-1.1523-2.7812-1.1523z"></path>
  <path d="m486.59 553.5c1.043 0 2.0469-0.41406 2.7852-1.1523 0.73828-0.73828 1.1523-1.7422 1.1523-2.7852v-15.742c0-2.1758-1.7617-3.9375-3.9375-3.9375-2.1719 0-3.9336 1.7617-3.9336 3.9375v15.742c0 1.043 0.41406 2.0469 1.1523 2.7852 0.73828 0.73828 1.7383 1.1523 2.7812 1.1523z"></path>
  <path d="m565.31 435.42h-27.555v-43.297c0-1.043-0.41406-2.043-1.1523-2.7812s-1.7383-1.1523-2.7812-1.1523h-15.746c-2.1719 0-3.9336 1.7617-3.9336 3.9336v43.297h-7.8711l-0.003907-59.039c0-1.043-0.41406-2.0469-1.1523-2.7852-0.73828-0.73828-1.7383-1.1523-2.7812-1.1523h-15.746c-2.1719 0-3.9336 1.7617-3.9336 3.9375v59.039h-7.8711l-0.003906-145.63c0-26.715-14.254-51.406-37.391-64.766-23.137-13.355-51.645-13.355-74.785 0-23.137 13.359-37.391 38.051-37.391 64.766v145.63h-90.527c-2.1758 0-3.9375 1.7617-3.9375 3.9375v157.44c0 1.043 0.41406 2.043 1.1523 2.7812 0.73828 0.73828 1.7383 1.1523 2.7852 1.1523h94.465-0.003906c1.0469 0 2.0469-0.41406 2.7852-1.1523 0.73828-0.73828 1.1523-1.7383 1.1523-2.7812v-59.043h133.82v59.043c0 1.043 0.41406 2.043 1.1523 2.7812s1.7422 1.1523 2.7852 1.1523h94.465c1.043 0 2.043-0.41406 2.7812-1.1523s1.1523-1.7383 1.1523-2.7812v-157.44c0-1.043-0.41406-2.0469-1.1523-2.7852s-1.7383-1.1523-2.7812-1.1523zm-3.9375 47.23h-86.594v-39.359h86.594zm-228.29-39.359h133.82v39.359h-133.82zm188.93-47.23h7.8711v39.359h-7.8711zm-31.488-15.742h7.8711v55.105h-7.8711zm-157.44-90.531c0-23.906 12.754-45.992 33.457-57.945s46.207-11.953 66.91 0 33.457 34.039 33.457 57.945v145.63h-133.82zm-94.465 153.5h86.594v39.359l-86.594 0.003906zm86.594 149.57h-86.594v-102.34h86.594zm7.8711-62.977v-39.359h133.82v39.359zm228.29 62.977h-86.594v-102.34h86.594z"></path>
  <path d="m423.61 451.17h-47.23c-2.1758 0-3.9375 1.7617-3.9375 3.9336 0 2.1758 1.7617 3.9375 3.9375 3.9375h47.23c2.1758 0 3.9375-1.7617 3.9375-3.9375 0-2.1719-1.7617-3.9336-3.9375-3.9336z"></path>
  <path d="m297.66 451.17h-31.488c-2.1758 0-3.9375 1.7617-3.9375 3.9336 0 2.1758 1.7617 3.9375 3.9375 3.9375h31.488c2.1719 0 3.9336-1.7617 3.9336-3.9375 0-2.1719-1.7617-3.9336-3.9336-3.9336z"></path>
  <path d="m502.34 451.17c-2.1758 0-3.9375 1.7617-3.9375 3.9336 0 2.1758 1.7617 3.9375 3.9375 3.9375h31.488c2.1719 0 3.9336-1.7617 3.9336-3.9375 0-2.1719-1.7617-3.9336-3.9336-3.9336z"></path>
 </g>

      </g>
     <g id="IconSvg_iconCarrier">
      <g xmlns="http://www.w3.org/2000/svg">
  <path d="m313.41 529.89c-2.1719 0-3.9375 1.7617-3.9375 3.9375v15.742c0 2.1758 1.7656 3.9375 3.9375 3.9375s3.9375-1.7617 3.9375-3.9375v-15.742c0-1.0469-0.41797-2.0469-1.1562-2.7852-0.73438-0.73828-1.7383-1.1523-2.7812-1.1523z"></path>
  <path d="m486.59 553.5c1.043 0 2.0469-0.41406 2.7852-1.1523 0.73828-0.73828 1.1523-1.7422 1.1523-2.7852v-15.742c0-2.1758-1.7617-3.9375-3.9375-3.9375-2.1719 0-3.9336 1.7617-3.9336 3.9375v15.742c0 1.043 0.41406 2.0469 1.1523 2.7852 0.73828 0.73828 1.7383 1.1523 2.7812 1.1523z"></path>
  <path d="m565.31 435.42h-27.555v-43.297c0-1.043-0.41406-2.043-1.1523-2.7812s-1.7383-1.1523-2.7812-1.1523h-15.746c-2.1719 0-3.9336 1.7617-3.9336 3.9336v43.297h-7.8711l-0.003907-59.039c0-1.043-0.41406-2.0469-1.1523-2.7852-0.73828-0.73828-1.7383-1.1523-2.7812-1.1523h-15.746c-2.1719 0-3.9336 1.7617-3.9336 3.9375v59.039h-7.8711l-0.003906-145.63c0-26.715-14.254-51.406-37.391-64.766-23.137-13.355-51.645-13.355-74.785 0-23.137 13.359-37.391 38.051-37.391 64.766v145.63h-90.527c-2.1758 0-3.9375 1.7617-3.9375 3.9375v157.44c0 1.043 0.41406 2.043 1.1523 2.7812 0.73828 0.73828 1.7383 1.1523 2.7852 1.1523h94.465-0.003906c1.0469 0 2.0469-0.41406 2.7852-1.1523 0.73828-0.73828 1.1523-1.7383 1.1523-2.7812v-59.043h133.82v59.043c0 1.043 0.41406 2.043 1.1523 2.7812s1.7422 1.1523 2.7852 1.1523h94.465c1.043 0 2.043-0.41406 2.7812-1.1523s1.1523-1.7383 1.1523-2.7812v-157.44c0-1.043-0.41406-2.0469-1.1523-2.7852s-1.7383-1.1523-2.7812-1.1523zm-3.9375 47.23h-86.594v-39.359h86.594zm-228.29-39.359h133.82v39.359h-133.82zm188.93-47.23h7.8711v39.359h-7.8711zm-31.488-15.742h7.8711v55.105h-7.8711zm-157.44-90.531c0-23.906 12.754-45.992 33.457-57.945s46.207-11.953 66.91 0 33.457 34.039 33.457 57.945v145.63h-133.82zm-94.465 153.5h86.594v39.359l-86.594 0.003906zm86.594 149.57h-86.594v-102.34h86.594zm7.8711-62.977v-39.359h133.82v39.359zm228.29 62.977h-86.594v-102.34h86.594z"></path>
  <path d="m423.61 451.17h-47.23c-2.1758 0-3.9375 1.7617-3.9375 3.9336 0 2.1758 1.7617 3.9375 3.9375 3.9375h47.23c2.1758 0 3.9375-1.7617 3.9375-3.9375 0-2.1719-1.7617-3.9336-3.9375-3.9336z"></path>
  <path d="m297.66 451.17h-31.488c-2.1758 0-3.9375 1.7617-3.9375 3.9336 0 2.1758 1.7617 3.9375 3.9375 3.9375h31.488c2.1719 0 3.9336-1.7617 3.9336-3.9375 0-2.1719-1.7617-3.9336-3.9336-3.9336z"></path>
  <path d="m502.34 451.17c-2.1758 0-3.9375 1.7617-3.9375 3.9336 0 2.1758 1.7617 3.9375 3.9375 3.9375h31.488c2.1719 0 3.9336-1.7617 3.9336-3.9375 0-2.1719-1.7617-3.9336-3.9336-3.9336z"></path></g>

     </g>
      </svg>
