<svg id="svg" fill="#000000" stroke="#000000" width="200" height="200" version="1.1" viewBox="144 144 512 512" xmlns="http://www.w3.org/2000/svg" transform="rotate(45)" stroke-width="2">
    <g id="IconSvg_bgCarrier" stroke-width="0"></g>
    <g id="IconSvg_tracerCarrier" stroke-linecap="round" stroke-linejoin="round" stroke="#CCCCCC" stroke-width="0">
      <defs xmlns="http://www.w3.org/2000/svg">
  <clipPath id="b">
   <path d="m204 216h447.9v435.9h-447.9z"></path>
  </clipPath>
  <clipPath id="a">
   <path d="m148.09 148.09h447.91v458.91h-447.91z"></path>
  </clipPath>
 </defs>
<g xmlns="http://www.w3.org/2000/svg">
  <g clip-path="url(#b)">
   <path transform="matrix(5.0381 0 0 5.0381 148.09 148.09)" d="m89.043 27.688-63.641 63.64m0-9.9996v9.9988l10.001-7.75e-4" fill="none" stroke="#000000" stroke-miterlimit="10"></path>
  </g>
  <g clip-path="url(#a)">
   <path transform="matrix(5.0381 0 0 5.0381 148.09 148.09)" d="m74.596 13.242-63.639 63.64m63.639-53.641v-9.9988h-9.998" fill="none" stroke="#000000" stroke-miterlimit="10"></path>
  </g>
 </g>

      </g>
     <g id="IconSvg_iconCarrier">
      <defs xmlns="http://www.w3.org/2000/svg">
  <clipPath id="b">
   <path d="m204 216h447.9v435.9h-447.9z"></path>
  </clipPath>
  <clipPath id="a">
   <path d="m148.09 148.09h447.91v458.91h-447.91z"></path>
  </clipPath>
 </defs>
<g xmlns="http://www.w3.org/2000/svg">
  <g clip-path="url(#b)">
   <path transform="matrix(5.0381 0 0 5.0381 148.09 148.09)" d="m89.043 27.688-63.641 63.64m0-9.9996v9.9988l10.001-7.75e-4" fill="none" stroke="#000000" stroke-miterlimit="10"></path>
  </g>
  <g clip-path="url(#a)">
   <path transform="matrix(5.0381 0 0 5.0381 148.09 148.09)" d="m74.596 13.242-63.639 63.64m63.639-53.641v-9.9988h-9.998" fill="none" stroke="#000000" stroke-miterlimit="10"></path>
  </g>
 </g>

      </g>
      </svg>