<svg id="svg" fill="#000000" stroke="#000000" width="50" height="50" version="1.1" viewBox="144 144 512 512" xmlns="http://www.w3.org/2000/svg">
    <g id="IconSvg_bgCarrier" stroke-width="0"></g>
    <g id="IconSvg_tracerCarrier" stroke-linecap="round" stroke-linejoin="round" stroke="#CCCCCC" stroke-width="0">
      <path xmlns="http://www.w3.org/2000/svg" d="m399.93 590.23-186.71-186.27c-42.758-45.508-40.531-116.95 4.7422-159.51 20.98-19.688 48.359-30.531 77.117-30.531 30.988 0 60.926 12.941 82.137 35.508l22.801 24.273 22.777-24.27c21.215-22.57 51.152-35.508 82.145-35.508 28.754 0 56.145 10.836 77.113 30.527 45.262 42.582 47.488 114.02 4.9531 159.27zm-104.86-356.16c-23.613 0-46.098 8.9023-63.324 25.07-37.164 34.934-39 93.605-4.0742 130.78l172.26 171.85 172.61-172.1c34.699-36.914 32.863-95.582-4.3008-130.55-17.211-16.156-39.699-25.059-63.309-25.059-25.832 0-49.785 10.352-67.461 29.156l-37.453 39.91-37.5-39.91c-17.664-18.797-41.617-29.148-67.445-29.148z"></path>

      </g>
     <g id="IconSvg_iconCarrier">
      <path xmlns="http://www.w3.org/2000/svg" d="m399.93 590.23-186.71-186.27c-42.758-45.508-40.531-116.95 4.7422-159.51 20.98-19.688 48.359-30.531 77.117-30.531 30.988 0 60.926 12.941 82.137 35.508l22.801 24.273 22.777-24.27c21.215-22.57 51.152-35.508 82.145-35.508 28.754 0 56.145 10.836 77.113 30.527 45.262 42.582 47.488 114.02 4.9531 159.27zm-104.86-356.16c-23.613 0-46.098 8.9023-63.324 25.07-37.164 34.934-39 93.605-4.0742 130.78l172.26 171.85 172.61-172.1c34.699-36.914 32.863-95.582-4.3008-130.55-17.211-16.156-39.699-25.059-63.309-25.059-25.832 0-49.785 10.352-67.461 29.156l-37.453 39.91-37.5-39.91c-17.664-18.797-41.617-29.148-67.445-29.148z"></path>

      </g>
      </svg>