<svg id="svg" fill="#000000" stroke="#000000" width="200px" height="200px" version="1.1" viewBox="144 144 512 512" xmlns="http://www.w3.org/2000/svg">
    <g id="IconSvg_bgCarrier" stroke-width="0"></g>
    <g id="IconSvg_tracerCarrier" stroke-linecap="round" stroke-linejoin="round" stroke="#CCCCCC"></g>
     <g id="IconSvg_iconCarrier">
      <path xmlns="http://www.w3.org/2000/svg" d="m399.7 606.7c3.5703-6.543 7.7344-14.277 13.086-23.199 53.535 1.7852 93.387 13.086 95.766 25.578-1.7852 12.492-48.773 25.578-108.85 25.578s-108.26-13.086-108.26-25.578c1.7852-12.492 42.23-23.793 95.766-25.578 5.3516 8.9219 9.5156 16.656 12.492 23.199zm16.059-29.145c42.23-74.945 126.7-220.68 126.7-275.4 0-79.109-63.645-142.76-142.76-142.76-78.516 0-142.16 63.645-142.16 142.76 0 54.723 84.465 200.45 126.7 275.4-56.508 2.3789-99.93 15.465-99.93 31.523 0 17.25 51.75 31.523 115.39 31.523 64.238 0 115.39-14.277 115.39-31.523 0-16.059-42.828-29.145-99.336-31.523zm-16.059 17.25c37.473-67.809 137.4-233.76 137.4-292.65 0-76.137-61.266-137.4-137.4-137.4-75.543 0-136.81 61.266-136.81 137.4 0 58.887 99.93 224.84 136.81 292.65zm0-350.94c32.121 0 58.293 26.172 58.293 58.293s-26.172 57.695-58.293 57.695c-31.523 0-57.695-25.578-57.695-57.695 0-32.121 26.172-58.293 57.695-58.293zm0 5.9492c29.145 0 52.938 23.199 52.938 52.344 0 28.551-23.793 52.344-52.938 52.344-28.551 0-52.344-23.793-52.344-52.344 0-29.145 23.793-52.344 52.344-52.344z" fill-rule="evenodd"></path>

      </g>
      </svg>