<svg id="svg" fill="#E27C33" stroke="#E27C33" width="200" height="200" version="1.1" viewBox="144 144 512 512" xmlns="http://www.w3.org/2000/svg">
    <g id="IconSvg_bgCarrier" stroke-width="0"></g>
    <g id="IconSvg_tracerCarrier" stroke-linecap="round" stroke-linejoin="round" stroke="#CCCCCC" stroke-width="0">
      <path xmlns="http://www.w3.org/2000/svg" d="m407.12 167.94 68.664 49.098 83.48 13.871c5.2617 0.85156 9.1445 5.0352 9.8672 10.043l13.836 83.266 49.258 68.883c3.0703 4.3203 2.8516 9.9844-0.16016 14.012l-49.098 68.664-13.871 83.48c-0.85156 5.2617-5.0352 9.1445-10.043 9.8672l-83.266 13.836-68.883 49.258c-4.3203 3.0703-9.9844 2.8516-14.012-0.16016l-68.664-49.098-83.48-13.871c-5.2617-0.85156-9.1445-5.0352-9.8672-10.043l-13.836-83.266-49.258-68.883c-3.0703-4.3203-2.8516-9.9844 0.16016-14.012l49.098-68.664 13.871-83.48c0.85156-5.2617 5.0352-9.1445 10.043-9.8672l83.266-13.836 68.883-49.258c4.3203-3.0703 9.9844-2.8516 14.012 0.16016zm110.82 349.8h-72.793c-6.5938 0-11.93-5.3359-11.93-11.926v-72.801c0-6.5859 5.3359-11.926 11.93-11.926h72.793c6.5859 0 11.93 5.3359 11.93 11.926v72.801c0 6.5859-5.3438 11.926-11.93 11.926zm-60.867-23.855h48.938v-48.938h-48.938zm-175.01-211.62h72.793c6.5859 0 11.93 5.3438 11.93 11.93v72.793c0 6.5859-5.3438 11.93-11.93 11.93h-72.793c-6.5859 0-11.93-5.3438-11.93-11.93v-72.793c0-6.5859 5.3438-11.93 11.93-11.93zm60.863 23.863h-48.93v48.93h48.93zm110.11-21.777c7.8477-13.551 28.445-1.6406 20.594 11.93l-126.66 219.39c-7.832 13.551-28.445 1.6406-20.594-11.93zm11.18-46.32-64.211-45.922-63.969 45.742c-1.4883 1.1172-3.2617 1.9102-5.2305 2.2266l-77.809 12.926-12.926 77.809c-0.28125 1.7422-0.95703 3.4531-2.0469 4.9883l-45.922 64.211 45.742 63.969c1.1172 1.4883 1.9102 3.2617 2.2266 5.2305l12.926 77.809 77.809 12.926c1.7422 0.28125 3.4531 0.95703 4.9883 2.0469l64.211 45.922 63.969-45.742c1.4883-1.1172 3.2617-1.9102 5.2305-2.2266l77.809-12.926 12.926-77.809c0.28125-1.7422 0.95703-3.4531 2.0469-4.9883l45.922-64.211-45.742-63.969c-1.1172-1.4883-1.9102-3.2617-2.2266-5.2305l-12.926-77.809-77.809-12.926c-1.7422-0.28125-3.4531-0.95703-4.9883-2.0469z"></path>

      </g>
     <g id="IconSvg_iconCarrier">
      <path xmlns="http://www.w3.org/2000/svg" d="m407.12 167.94 68.664 49.098 83.48 13.871c5.2617 0.85156 9.1445 5.0352 9.8672 10.043l13.836 83.266 49.258 68.883c3.0703 4.3203 2.8516 9.9844-0.16016 14.012l-49.098 68.664-13.871 83.48c-0.85156 5.2617-5.0352 9.1445-10.043 9.8672l-83.266 13.836-68.883 49.258c-4.3203 3.0703-9.9844 2.8516-14.012-0.16016l-68.664-49.098-83.48-13.871c-5.2617-0.85156-9.1445-5.0352-9.8672-10.043l-13.836-83.266-49.258-68.883c-3.0703-4.3203-2.8516-9.9844 0.16016-14.012l49.098-68.664 13.871-83.48c0.85156-5.2617 5.0352-9.1445 10.043-9.8672l83.266-13.836 68.883-49.258c4.3203-3.0703 9.9844-2.8516 14.012 0.16016zm110.82 349.8h-72.793c-6.5938 0-11.93-5.3359-11.93-11.926v-72.801c0-6.5859 5.3359-11.926 11.93-11.926h72.793c6.5859 0 11.93 5.3359 11.93 11.926v72.801c0 6.5859-5.3438 11.926-11.93 11.926zm-60.867-23.855h48.938v-48.938h-48.938zm-175.01-211.62h72.793c6.5859 0 11.93 5.3438 11.93 11.93v72.793c0 6.5859-5.3438 11.93-11.93 11.93h-72.793c-6.5859 0-11.93-5.3438-11.93-11.93v-72.793c0-6.5859 5.3438-11.93 11.93-11.93zm60.863 23.863h-48.93v48.93h48.93zm110.11-21.777c7.8477-13.551 28.445-1.6406 20.594 11.93l-126.66 219.39c-7.832 13.551-28.445 1.6406-20.594-11.93zm11.18-46.32-64.211-45.922-63.969 45.742c-1.4883 1.1172-3.2617 1.9102-5.2305 2.2266l-77.809 12.926-12.926 77.809c-0.28125 1.7422-0.95703 3.4531-2.0469 4.9883l-45.922 64.211 45.742 63.969c1.1172 1.4883 1.9102 3.2617 2.2266 5.2305l12.926 77.809 77.809 12.926c1.7422 0.28125 3.4531 0.95703 4.9883 2.0469l64.211 45.922 63.969-45.742c1.4883-1.1172 3.2617-1.9102 5.2305-2.2266l77.809-12.926 12.926-77.809c0.28125-1.7422 0.95703-3.4531 2.0469-4.9883l45.922-64.211-45.742-63.969c-1.1172-1.4883-1.9102-3.2617-2.2266-5.2305l-12.926-77.809-77.809-12.926c-1.7422-0.28125-3.4531-0.95703-4.9883-2.0469z"></path>

      </g>
      </svg>