<svg id="svg" fill="#E27C33" stroke="#E27C33" width="100" height="100" version="1.1" viewBox="144 144 512 512" xmlns="http://www.w3.org/2000/svg">
    <g id="IconSvg_bgCarrier" stroke-width="0"></g>
    <g id="IconSvg_tracerCarrier" stroke-linecap="round" stroke-linejoin="round" stroke="#CCCCCC" stroke-width="0">
      <path xmlns="http://www.w3.org/2000/svg" d="m628.54 201.93h-457.09c-4.207 0-7.6211 3.4102-7.6211 7.6172v304.73c0 4.207 3.4141 7.6172 7.6211 7.6172h258.2c0.44141 0.45703 0.79688 0.99609 1.2656 1.4219l-20.766 44.57v0.003907c-1.0352 2.2148-0.94531 4.793 0.24609 6.9297 1.1914 2.1367 3.3359 3.5703 5.7656 3.8555l21.41 2.5234 15.695 14.801c1.4102 1.332 3.2812 2.0781 5.2227 2.0742 0.48047 0 0.96094-0.042968 1.4297-0.13281 2.4023-0.46094 4.4375-2.0469 5.4766-4.2578l18.387-39.359 18.387 39.359c1.0391 2.2109 3.0742 3.7969 5.4766 4.2578 0.46875 0.089844 0.94922 0.13281 1.4258 0.13281 1.9453 0.003907 3.8164-0.74219 5.2266-2.0742l15.695-14.801 21.41-2.5234c2.4297-0.28516 4.5742-1.7227 5.7656-3.8555 1.1875-2.1367 1.2812-4.7148 0.24609-6.9297l-20.77-44.602c0.45703-0.41797 0.8125-0.94531 1.2383-1.3984h90.648c4.207 0 7.6172-3.4102 7.6172-7.6172v-304.72c0-4.207-3.4102-7.6172-7.6172-7.6172zm-210.38 245.51c-6.6914 4.9531-10.609 12.805-10.543 21.125 0.019531 1.8047 0.21875 3.6016 0.59766 5.3672 0.078125 0.39844 0.15625 0.79297 0.25781 1.1875 0.089844 0.35156 0.12891 0.71875 0.23438 1.0664l-177.27-0.003906c-1.3711-5.2656-4.125-10.07-7.9727-13.918-3.8477-3.8477-8.6523-6.5977-13.918-7.9688v-184.77c5.2656-1.3711 10.07-4.125 13.918-7.9727 3.8477-3.8477 6.6016-8.6523 7.9727-13.918h337.12c1.3711 5.2656 4.125 10.07 7.9727 13.918 3.8477 3.8477 8.6523 6.6016 13.918 7.9727v184.76c-5.2656 1.3711-10.07 4.125-13.918 7.9727-3.8477 3.8477-6.6016 8.6523-7.9727 13.918h-9.6719c0.10156-0.33984 0.14062-0.70703 0.23047-1.0508 0.097656-0.39453 0.17578-0.78125 0.25781-1.1758v-0.003906c0.38281-1.7695 0.58594-3.5742 0.60156-5.3867 0.070313-8.2969-3.8242-16.133-10.48-21.086-2.8008-2.082-4.4492-5.3672-4.4492-8.8555 0.007813-0.55859 0.058594-1.1172 0.15625-1.668 1.0156-7.5625-1.2852-15.199-6.3047-20.949-5.0195-5.75-12.273-9.0547-19.906-9.0703-1.2344-0.027344-2.4688 0.050781-3.6914 0.23047-3.9727 0.57813-7.9492-1.043-10.383-4.2383-4.9844-6.6289-12.789-10.531-21.082-10.547-8.293-0.011718-16.113 3.8711-21.117 10.484-2.0859 2.7969-5.375 4.4492-8.8633 4.4492-0.55859-0.007812-1.1172-0.058594-1.668-0.16016-7.5664-1.0117-15.199 1.2852-20.949 6.3086-5.75 5.0195-9.0586 12.273-9.0742 19.906-0.023437 1.2852 0.0625 2.5703 0.25781 3.8438 0.078125 0.46875 0.12109 0.94141 0.12109 1.418 0.003906 3.4609-1.6211 6.7227-4.3828 8.8086zm111.65 51.062c0.003906 1.3477 0.12109 2.6875 0.34375 4.0117 0.042968 0.41406 0.054687 0.83203 0.035156 1.2461 0.011719 2.2383-0.67969 4.4219-1.9688 6.25-1.0977 1.6602-2.6289 2.9961-4.4258 3.8555-1.0117 0.5-2.0977 0.82812-3.2148 0.97266-0.96484 0.15625-1.9492 0.17578-2.9219 0.066406-1.2969-0.21484-2.6094-0.32812-3.9219-0.33203-8.2969-0.007812-16.109 3.9062-21.066 10.562-2.1602 2.8516-5.5703 4.4805-9.1484 4.3711-3.4297-0.027344-6.6406-1.6797-8.6602-4.4492-4.9531-6.6133-12.742-10.5-21.004-10.484-1.3477 0.007813-2.6875 0.12109-4.0156 0.34766-0.21484 0.03125-0.42969 0.042969-0.64844 0.039062-0.74609 0.011719-1.4922-0.03125-2.2344-0.12891-1.0938-0.17188-2.1602-0.5-3.1641-0.96875-1.8164-0.85156-3.3672-2.1836-4.4883-3.8477-1.5391-2.2148-2.1992-4.9219-1.8516-7.5938 0.21484-1.2969 0.32812-2.6055 0.33203-3.9219 0.089844-7.8867-3.4727-15.375-9.6562-20.273-0.27344-0.28516-0.57422-0.54297-0.89062-0.77734-2.7773-2.1289-4.3984-5.4297-4.3867-8.9258 0.015626-3.5 1.6602-6.7891 4.4492-8.8984 6.6133-4.9531 10.5-12.738 10.484-21-0.007812-1.3438-0.12109-2.6875-0.34766-4.0156-0.039062-0.41016-0.050781-0.82812-0.03125-1.2422 0.007812-3.2305 1.4102-6.3008 3.8477-8.4219 2.3633-2.125 5.5312-3.1172 8.6836-2.7266 1.293 0.21484 2.6055 0.32812 3.918 0.33203 8.293 0.007813 16.102-3.9023 21.055-10.551 2.1953-2.668 5.4766-4.2109 8.9336-4.1953 3.457 0.011719 6.7227 1.582 8.8945 4.2695 2.8789 3.7773 6.7188 6.707 11.121 8.4883 4.3984 1.7812 9.1992 2.3477 13.891 1.6367 0.21484-0.03125 0.43359-0.042968 0.64844-0.039062 3.4297-0.11328 6.7305 1.3008 9.0156 3.8555 2.1172 2.3672 3.1094 5.5312 2.7266 8.6836-0.21484 1.2969-0.32422 2.6055-0.32812 3.9219-0.015625 8.2891 3.8945 16.098 10.543 21.051 2.7656 2.1211 4.3867 5.4062 4.3867 8.8906s-1.6211 6.7695-4.3867 8.8906c-0.18359 0.13672-0.43359 0.35547-0.66797 0.57422-0.12109 0.09375-0.20312 0.22266-0.32031 0.32031l-0.12891 0.11719-0.03125 0.042968-0.003906-0.003906c-5.9609 4.9297-9.4062 12.266-9.3945 20zm-73.746 79.176-9.8555-9.293c-1.1875-1.125-2.707-1.832-4.3281-2.0273l-13.453-1.5859 16.246-34.875c0.59766 0.09375 1.2695 0.10547 1.9102 0.15625 0.66406 0.058594 1.2969 0.15625 1.9727 0.16406v0.007812c1.3047 0.027344 2.6055-0.066406 3.8906-0.28516 3.9414-0.67578 7.918 0.98047 10.219 4.25 1.2539 1.6875 2.707 3.2188 4.3281 4.5547 0.56641 0.47266 1.2188 0.79687 1.8203 1.2148h0.003906c1.0586 0.78906 2.1836 1.4922 3.3516 2.1055 0.14844 0.070312 0.26562 0.19141 0.41406 0.26172zm69.652-11.324v0.003907c-1.6211 0.19141-3.1406 0.90234-4.3281 2.0234l-9.8555 9.3008-16.516-35.355c0.13672-0.0625 0.25-0.17578 0.38672-0.24219h-0.003906c1.2188-0.62891 2.3867-1.3594 3.4883-2.1797 0.55469-0.39453 1.168-0.69141 1.6914-1.125l0.003906-0.003906c1.6094-1.3203 3.0508-2.8359 4.293-4.5078 2.0859-2.8008 5.375-4.4492 8.8633-4.4492 0.58984 0.007813 1.1758 0.066406 1.7539 0.16797 2.4414 0.32422 4.9141 0.29688 7.3477-0.078125l0.085937-0.011719 16.246 34.875zm95.203-59.703-75.652 0.003906c0.10938-0.96094 0.16016-1.9258 0.16016-2.8945 0.023438-1.2891-0.0625-2.5781-0.25781-3.8516-0.082031-0.46094-0.12109-0.93359-0.125-1.4062-0.003907-2.5977 0.92969-5.1133 2.6289-7.082h27.539c4.207 0 7.6172-3.4102 7.6211-7.6172 0.003907-4.043 1.6094-7.9141 4.4648-10.77 2.8594-2.8594 6.7305-4.4648 10.773-4.4688 4.207 0 7.6172-3.4102 7.6172-7.6172v-198.07c0-4.207-3.4102-7.6172-7.6172-7.6172-4.043-0.003906-7.9141-1.6094-10.77-4.4648-2.8594-2.8594-4.4648-6.7305-4.4688-10.77 0-4.207-3.4102-7.6172-7.6172-7.6172h-350.43c-4.207 0-7.6172 3.4102-7.6172 7.6172-0.003906 4.0391-1.6094 7.9102-4.4648 10.77-2.8594 2.8555-6.7305 4.4609-10.77 4.4648-4.207 0-7.6172 3.4102-7.6211 7.6172v198.07c0 4.207 3.4141 7.6211 7.6211 7.6211 4.0391 0.003906 7.9102 1.6094 10.77 4.4648 2.8555 2.8594 4.4609 6.7305 4.4648 10.77 0 4.207 3.4102 7.6172 7.6172 7.6172h195.14c1.6992 1.9688 2.6328 4.4844 2.6289 7.0859-0.003906 0.53125-0.054687 1.0586-0.14844 1.582-0.25391 1.9531-0.28516 3.9336-0.09375 5.8945 0.019531 0.22266-0.035157 0.44922-0.011719 0.67188h-243.22v-289.48h441.85zm-304.73-220.93 0.003906 0.003906c0-4.207 3.4102-7.6172 7.6172-7.6172h152.37c2.0352-0.019531 3.9922 0.77344 5.4375 2.2031 1.4453 1.4297 2.2578 3.3789 2.2578 5.4141 0 2.0352-0.8125 3.9844-2.2578 5.4141-1.4453 1.4336-3.4023 2.2266-5.4375 2.2031h-152.36c-4.207 0-7.6172-3.4102-7.6172-7.6172zm-30.473 38.09 0.003906 0.003906c0-4.207 3.4102-7.6172 7.6172-7.6172h213.31c4.1758 0.042969 7.5391 3.4414 7.5391 7.6172 0 4.1797-3.3633 7.5781-7.5391 7.6172h-213.31c-4.207 0-7.6172-3.4102-7.6172-7.6172zm121.9 76.188c0 4.207-3.4102 7.6172-7.6172 7.6172h-106.66c-4.207 0-7.6172-3.4102-7.6172-7.6172s3.4102-7.6211 7.6172-7.6211h106.66c4.207 0.003906 7.6172 3.4141 7.6172 7.6211zm99.035-30.473h-213.31c-4.1758-0.042969-7.5391-3.4414-7.5391-7.6211 0-4.1758 3.3633-7.5742 7.5391-7.6172h213.31c4.1758 0.042969 7.5391 3.4414 7.5391 7.6172 0 4.1797-3.3633 7.5781-7.5391 7.6211zm5.3867 78.414v-0.003906c1.4258 1.4297 2.2305 3.3672 2.2305 5.3867s-0.80469 3.957-2.2305 5.3867l-30.473 30.473c-1.4297 1.4297-3.3672 2.2305-5.3867 2.2305-2.0195 0-3.957-0.80078-5.3867-2.2305l-15.234-15.234c-2.9766-2.9766-2.9766-7.8008 0-10.773 2.9727-2.9766 7.7969-2.9766 10.77 0l9.8477 9.8477 25.09-25.086c1.4297-1.4258 3.3672-2.2305 5.3867-2.2305 2.0195 0 3.957 0.80469 5.3867 2.2305z"></path>

      </g>
     <g id="IconSvg_iconCarrier">
      <path xmlns="http://www.w3.org/2000/svg" d="m628.54 201.93h-457.09c-4.207 0-7.6211 3.4102-7.6211 7.6172v304.73c0 4.207 3.4141 7.6172 7.6211 7.6172h258.2c0.44141 0.45703 0.79688 0.99609 1.2656 1.4219l-20.766 44.57v0.003907c-1.0352 2.2148-0.94531 4.793 0.24609 6.9297 1.1914 2.1367 3.3359 3.5703 5.7656 3.8555l21.41 2.5234 15.695 14.801c1.4102 1.332 3.2812 2.0781 5.2227 2.0742 0.48047 0 0.96094-0.042968 1.4297-0.13281 2.4023-0.46094 4.4375-2.0469 5.4766-4.2578l18.387-39.359 18.387 39.359c1.0391 2.2109 3.0742 3.7969 5.4766 4.2578 0.46875 0.089844 0.94922 0.13281 1.4258 0.13281 1.9453 0.003907 3.8164-0.74219 5.2266-2.0742l15.695-14.801 21.41-2.5234c2.4297-0.28516 4.5742-1.7227 5.7656-3.8555 1.1875-2.1367 1.2812-4.7148 0.24609-6.9297l-20.77-44.602c0.45703-0.41797 0.8125-0.94531 1.2383-1.3984h90.648c4.207 0 7.6172-3.4102 7.6172-7.6172v-304.72c0-4.207-3.4102-7.6172-7.6172-7.6172zm-210.38 245.51c-6.6914 4.9531-10.609 12.805-10.543 21.125 0.019531 1.8047 0.21875 3.6016 0.59766 5.3672 0.078125 0.39844 0.15625 0.79297 0.25781 1.1875 0.089844 0.35156 0.12891 0.71875 0.23438 1.0664l-177.27-0.003906c-1.3711-5.2656-4.125-10.07-7.9727-13.918-3.8477-3.8477-8.6523-6.5977-13.918-7.9688v-184.77c5.2656-1.3711 10.07-4.125 13.918-7.9727 3.8477-3.8477 6.6016-8.6523 7.9727-13.918h337.12c1.3711 5.2656 4.125 10.07 7.9727 13.918 3.8477 3.8477 8.6523 6.6016 13.918 7.9727v184.76c-5.2656 1.3711-10.07 4.125-13.918 7.9727-3.8477 3.8477-6.6016 8.6523-7.9727 13.918h-9.6719c0.10156-0.33984 0.14062-0.70703 0.23047-1.0508 0.097656-0.39453 0.17578-0.78125 0.25781-1.1758v-0.003906c0.38281-1.7695 0.58594-3.5742 0.60156-5.3867 0.070313-8.2969-3.8242-16.133-10.48-21.086-2.8008-2.082-4.4492-5.3672-4.4492-8.8555 0.007813-0.55859 0.058594-1.1172 0.15625-1.668 1.0156-7.5625-1.2852-15.199-6.3047-20.949-5.0195-5.75-12.273-9.0547-19.906-9.0703-1.2344-0.027344-2.4688 0.050781-3.6914 0.23047-3.9727 0.57813-7.9492-1.043-10.383-4.2383-4.9844-6.6289-12.789-10.531-21.082-10.547-8.293-0.011718-16.113 3.8711-21.117 10.484-2.0859 2.7969-5.375 4.4492-8.8633 4.4492-0.55859-0.007812-1.1172-0.058594-1.668-0.16016-7.5664-1.0117-15.199 1.2852-20.949 6.3086-5.75 5.0195-9.0586 12.273-9.0742 19.906-0.023437 1.2852 0.0625 2.5703 0.25781 3.8438 0.078125 0.46875 0.12109 0.94141 0.12109 1.418 0.003906 3.4609-1.6211 6.7227-4.3828 8.8086zm111.65 51.062c0.003906 1.3477 0.12109 2.6875 0.34375 4.0117 0.042968 0.41406 0.054687 0.83203 0.035156 1.2461 0.011719 2.2383-0.67969 4.4219-1.9688 6.25-1.0977 1.6602-2.6289 2.9961-4.4258 3.8555-1.0117 0.5-2.0977 0.82812-3.2148 0.97266-0.96484 0.15625-1.9492 0.17578-2.9219 0.066406-1.2969-0.21484-2.6094-0.32812-3.9219-0.33203-8.2969-0.007812-16.109 3.9062-21.066 10.562-2.1602 2.8516-5.5703 4.4805-9.1484 4.3711-3.4297-0.027344-6.6406-1.6797-8.6602-4.4492-4.9531-6.6133-12.742-10.5-21.004-10.484-1.3477 0.007813-2.6875 0.12109-4.0156 0.34766-0.21484 0.03125-0.42969 0.042969-0.64844 0.039062-0.74609 0.011719-1.4922-0.03125-2.2344-0.12891-1.0938-0.17188-2.1602-0.5-3.1641-0.96875-1.8164-0.85156-3.3672-2.1836-4.4883-3.8477-1.5391-2.2148-2.1992-4.9219-1.8516-7.5938 0.21484-1.2969 0.32812-2.6055 0.33203-3.9219 0.089844-7.8867-3.4727-15.375-9.6562-20.273-0.27344-0.28516-0.57422-0.54297-0.89062-0.77734-2.7773-2.1289-4.3984-5.4297-4.3867-8.9258 0.015626-3.5 1.6602-6.7891 4.4492-8.8984 6.6133-4.9531 10.5-12.738 10.484-21-0.007812-1.3438-0.12109-2.6875-0.34766-4.0156-0.039062-0.41016-0.050781-0.82812-0.03125-1.2422 0.007812-3.2305 1.4102-6.3008 3.8477-8.4219 2.3633-2.125 5.5312-3.1172 8.6836-2.7266 1.293 0.21484 2.6055 0.32812 3.918 0.33203 8.293 0.007813 16.102-3.9023 21.055-10.551 2.1953-2.668 5.4766-4.2109 8.9336-4.1953 3.457 0.011719 6.7227 1.582 8.8945 4.2695 2.8789 3.7773 6.7188 6.707 11.121 8.4883 4.3984 1.7812 9.1992 2.3477 13.891 1.6367 0.21484-0.03125 0.43359-0.042968 0.64844-0.039062 3.4297-0.11328 6.7305 1.3008 9.0156 3.8555 2.1172 2.3672 3.1094 5.5312 2.7266 8.6836-0.21484 1.2969-0.32422 2.6055-0.32812 3.9219-0.015625 8.2891 3.8945 16.098 10.543 21.051 2.7656 2.1211 4.3867 5.4062 4.3867 8.8906s-1.6211 6.7695-4.3867 8.8906c-0.18359 0.13672-0.43359 0.35547-0.66797 0.57422-0.12109 0.09375-0.20312 0.22266-0.32031 0.32031l-0.12891 0.11719-0.03125 0.042968-0.003906-0.003906c-5.9609 4.9297-9.4062 12.266-9.3945 20zm-73.746 79.176-9.8555-9.293c-1.1875-1.125-2.707-1.832-4.3281-2.0273l-13.453-1.5859 16.246-34.875c0.59766 0.09375 1.2695 0.10547 1.9102 0.15625 0.66406 0.058594 1.2969 0.15625 1.9727 0.16406v0.007812c1.3047 0.027344 2.6055-0.066406 3.8906-0.28516 3.9414-0.67578 7.918 0.98047 10.219 4.25 1.2539 1.6875 2.707 3.2188 4.3281 4.5547 0.56641 0.47266 1.2188 0.79687 1.8203 1.2148h0.003906c1.0586 0.78906 2.1836 1.4922 3.3516 2.1055 0.14844 0.070312 0.26562 0.19141 0.41406 0.26172zm69.652-11.324v0.003907c-1.6211 0.19141-3.1406 0.90234-4.3281 2.0234l-9.8555 9.3008-16.516-35.355c0.13672-0.0625 0.25-0.17578 0.38672-0.24219h-0.003906c1.2188-0.62891 2.3867-1.3594 3.4883-2.1797 0.55469-0.39453 1.168-0.69141 1.6914-1.125l0.003906-0.003906c1.6094-1.3203 3.0508-2.8359 4.293-4.5078 2.0859-2.8008 5.375-4.4492 8.8633-4.4492 0.58984 0.007813 1.1758 0.066406 1.7539 0.16797 2.4414 0.32422 4.9141 0.29688 7.3477-0.078125l0.085937-0.011719 16.246 34.875zm95.203-59.703-75.652 0.003906c0.10938-0.96094 0.16016-1.9258 0.16016-2.8945 0.023438-1.2891-0.0625-2.5781-0.25781-3.8516-0.082031-0.46094-0.12109-0.93359-0.125-1.4062-0.003907-2.5977 0.92969-5.1133 2.6289-7.082h27.539c4.207 0 7.6172-3.4102 7.6211-7.6172 0.003907-4.043 1.6094-7.9141 4.4648-10.77 2.8594-2.8594 6.7305-4.4648 10.773-4.4688 4.207 0 7.6172-3.4102 7.6172-7.6172v-198.07c0-4.207-3.4102-7.6172-7.6172-7.6172-4.043-0.003906-7.9141-1.6094-10.77-4.4648-2.8594-2.8594-4.4648-6.7305-4.4688-10.77 0-4.207-3.4102-7.6172-7.6172-7.6172h-350.43c-4.207 0-7.6172 3.4102-7.6172 7.6172-0.003906 4.0391-1.6094 7.9102-4.4648 10.77-2.8594 2.8555-6.7305 4.4609-10.77 4.4648-4.207 0-7.6172 3.4102-7.6211 7.6172v198.07c0 4.207 3.4141 7.6211 7.6211 7.6211 4.0391 0.003906 7.9102 1.6094 10.77 4.4648 2.8555 2.8594 4.4609 6.7305 4.4648 10.77 0 4.207 3.4102 7.6172 7.6172 7.6172h195.14c1.6992 1.9688 2.6328 4.4844 2.6289 7.0859-0.003906 0.53125-0.054687 1.0586-0.14844 1.582-0.25391 1.9531-0.28516 3.9336-0.09375 5.8945 0.019531 0.22266-0.035157 0.44922-0.011719 0.67188h-243.22v-289.48h441.85zm-304.73-220.93 0.003906 0.003906c0-4.207 3.4102-7.6172 7.6172-7.6172h152.37c2.0352-0.019531 3.9922 0.77344 5.4375 2.2031 1.4453 1.4297 2.2578 3.3789 2.2578 5.4141 0 2.0352-0.8125 3.9844-2.2578 5.4141-1.4453 1.4336-3.4023 2.2266-5.4375 2.2031h-152.36c-4.207 0-7.6172-3.4102-7.6172-7.6172zm-30.473 38.09 0.003906 0.003906c0-4.207 3.4102-7.6172 7.6172-7.6172h213.31c4.1758 0.042969 7.5391 3.4414 7.5391 7.6172 0 4.1797-3.3633 7.5781-7.5391 7.6172h-213.31c-4.207 0-7.6172-3.4102-7.6172-7.6172zm121.9 76.188c0 4.207-3.4102 7.6172-7.6172 7.6172h-106.66c-4.207 0-7.6172-3.4102-7.6172-7.6172s3.4102-7.6211 7.6172-7.6211h106.66c4.207 0.003906 7.6172 3.4141 7.6172 7.6211zm99.035-30.473h-213.31c-4.1758-0.042969-7.5391-3.4414-7.5391-7.6211 0-4.1758 3.3633-7.5742 7.5391-7.6172h213.31c4.1758 0.042969 7.5391 3.4414 7.5391 7.6172 0 4.1797-3.3633 7.5781-7.5391 7.6211zm5.3867 78.414v-0.003906c1.4258 1.4297 2.2305 3.3672 2.2305 5.3867s-0.80469 3.957-2.2305 5.3867l-30.473 30.473c-1.4297 1.4297-3.3672 2.2305-5.3867 2.2305-2.0195 0-3.957-0.80078-5.3867-2.2305l-15.234-15.234c-2.9766-2.9766-2.9766-7.8008 0-10.773 2.9727-2.9766 7.7969-2.9766 10.77 0l9.8477 9.8477 25.09-25.086c1.4297-1.4258 3.3672-2.2305 5.3867-2.2305 2.0195 0 3.957 0.80469 5.3867 2.2305z"></path>

      </g>
      </svg>