<svg id="svg" fill="#E27C33" stroke="#E27C33" width="100" height="100" version="1.1" viewBox="144 144 512 512" xmlns="http://www.w3.org/2000/svg">
    <g id="IconSvg_bgCarrier" stroke-width="0"></g>
    <g id="IconSvg_tracerCarrier" stroke-linecap="round" stroke-linejoin="round" stroke="#CCCCCC" stroke-width="0">
      <path xmlns="http://www.w3.org/2000/svg" d="m545.76 346.52c-12.965-84.398-86.91-147.98-172.47-148.05h-0.15234c-46.598 0-90.422 18.141-123.4 51.094-33.02 32.984-51.223 76.863-51.262 123.55-0.082031 96.383 78.207 174.86 174.52 174.94h0.14062c18.18 0 36.043-2.8516 53.172-8.3281 17.5 15.523 40.012 25.277 64.727 26.457l0.097656 30.309c0.007813 2.7773 2.2617 5.0234 5.0352 5.0234h0.015625c2.7812-0.011719 5.0312-2.2734 5.0195-5.0547l-0.097656-30.27c26.098-1.2461 50.508-11.941 69.164-30.652 20.246-20.309 31.34-47.406 31.254-76.301-0.10547-34.027-17.605-70.578-52.008-108.65-1.2578-1.3906-2.5078-2.7305-3.7539-4.0703zm-172.48-137.97c75.598 0.0625 141.57 52.734 159.58 124.86-18.629-18.012-33.855-29.02-34.672-29.605-1.7852-1.2773-4.1992-1.25-5.9609 0.0625-1.6016 1.207-17.023 12.941-35.418 31.285-25.984-18.148-33.113-19.805-60.41-21.105-43.309-2.0703-87.195-14.859-84.949-93.555 19.344-7.8164 40.199-11.938 61.691-11.938h0.14062zm-164.73 164.58c0.007813-7.3789 0.53516-14.676 1.4922-21.871 10.742 7.6172 44.762 27.234 105.34 22.484 15.324-1.2109 25.668 2.5352 31.602 11.426 19.969 29.914-13.895 112.15-29.473 143.11-63.512-22.898-109.02-83.809-108.96-155.15zm164.45 164.86c-15.895-0.015625-31.25-2.3398-45.793-6.5781 8.7773-17.836 53.742-113.5 28.16-151.84-8.0273-12.023-21.754-17.379-40.77-15.875-68.484 5.418-101.33-22.602-101.66-22.883-0.32422-0.28516-0.71094-0.43359-1.0781-0.625 6.3711-31.434 21.797-60.32 44.992-83.492 13.176-13.164 28.199-23.785 44.469-31.695-0.40625 94.504 68.352 97.855 94.59 99.113 25.074 1.1953 30.383 2.082 53.762 18.34-28.176 29.641-59.895 72.797-59.758 116.82 0.085937 27.898 10.832 53.262 28.199 72.352-14.57 4.1406-29.648 6.3594-44.98 6.3594-0.046875-0.003906-0.09375-0.003906-0.13672-0.003906zm190.13-9.5547c-16.762 16.812-38.648 26.461-62.059 27.695l-0.14062-44 52.992-53.156c1.9648-1.9727 1.9609-5.1602-0.011719-7.125-1.9766-1.9648-5.1641-1.9688-7.125 0.011719l-45.906 46.047-0.17969-56.305 27.176-27.262c1.9648-1.9727 1.9609-5.1602-0.011718-7.125-1.9766-1.9648-5.1641-1.9648-7.125 0.011718l-20.09 20.152-0.14062-43.66c-0.011719-2.7812-2.2617-5.0234-5.0391-5.0234h-0.015624c-2.7812 0.011719-5.0312 2.2734-5.0195 5.0547l0.14062 43.395-19.988-19.926c-1.9727-1.9648-5.1602-1.9648-7.125 0.011718-1.9648 1.9727-1.9609 5.1602 0.011719 7.125l27.148 27.066 0.17969 56.492-46.199-46.055c-1.9727-1.9648-5.1602-1.9688-7.125 0.011719-1.9648 1.9727-1.9609 5.1602 0.011719 7.125l53.363 53.176 0.14062 43.945c-50.449-2.6836-90.844-45.039-91.004-96.867-0.20312-65.199 78.887-131.86 95.324-145 16.562 12.707 95.914 77.133 96.125 145.03 0.078126 26.199-9.9727 50.762-28.309 69.156z"></path>

      </g>
     <g id="IconSvg_iconCarrier">
      <path xmlns="http://www.w3.org/2000/svg" d="m545.76 346.52c-12.965-84.398-86.91-147.98-172.47-148.05h-0.15234c-46.598 0-90.422 18.141-123.4 51.094-33.02 32.984-51.223 76.863-51.262 123.55-0.082031 96.383 78.207 174.86 174.52 174.94h0.14062c18.18 0 36.043-2.8516 53.172-8.3281 17.5 15.523 40.012 25.277 64.727 26.457l0.097656 30.309c0.007813 2.7773 2.2617 5.0234 5.0352 5.0234h0.015625c2.7812-0.011719 5.0312-2.2734 5.0195-5.0547l-0.097656-30.27c26.098-1.2461 50.508-11.941 69.164-30.652 20.246-20.309 31.34-47.406 31.254-76.301-0.10547-34.027-17.605-70.578-52.008-108.65-1.2578-1.3906-2.5078-2.7305-3.7539-4.0703zm-172.48-137.97c75.598 0.0625 141.57 52.734 159.58 124.86-18.629-18.012-33.855-29.02-34.672-29.605-1.7852-1.2773-4.1992-1.25-5.9609 0.0625-1.6016 1.207-17.023 12.941-35.418 31.285-25.984-18.148-33.113-19.805-60.41-21.105-43.309-2.0703-87.195-14.859-84.949-93.555 19.344-7.8164 40.199-11.938 61.691-11.938h0.14062zm-164.73 164.58c0.007813-7.3789 0.53516-14.676 1.4922-21.871 10.742 7.6172 44.762 27.234 105.34 22.484 15.324-1.2109 25.668 2.5352 31.602 11.426 19.969 29.914-13.895 112.15-29.473 143.11-63.512-22.898-109.02-83.809-108.96-155.15zm164.45 164.86c-15.895-0.015625-31.25-2.3398-45.793-6.5781 8.7773-17.836 53.742-113.5 28.16-151.84-8.0273-12.023-21.754-17.379-40.77-15.875-68.484 5.418-101.33-22.602-101.66-22.883-0.32422-0.28516-0.71094-0.43359-1.0781-0.625 6.3711-31.434 21.797-60.32 44.992-83.492 13.176-13.164 28.199-23.785 44.469-31.695-0.40625 94.504 68.352 97.855 94.59 99.113 25.074 1.1953 30.383 2.082 53.762 18.34-28.176 29.641-59.895 72.797-59.758 116.82 0.085937 27.898 10.832 53.262 28.199 72.352-14.57 4.1406-29.648 6.3594-44.98 6.3594-0.046875-0.003906-0.09375-0.003906-0.13672-0.003906zm190.13-9.5547c-16.762 16.812-38.648 26.461-62.059 27.695l-0.14062-44 52.992-53.156c1.9648-1.9727 1.9609-5.1602-0.011719-7.125-1.9766-1.9648-5.1641-1.9688-7.125 0.011719l-45.906 46.047-0.17969-56.305 27.176-27.262c1.9648-1.9727 1.9609-5.1602-0.011718-7.125-1.9766-1.9648-5.1641-1.9648-7.125 0.011718l-20.09 20.152-0.14062-43.66c-0.011719-2.7812-2.2617-5.0234-5.0391-5.0234h-0.015624c-2.7812 0.011719-5.0312 2.2734-5.0195 5.0547l0.14062 43.395-19.988-19.926c-1.9727-1.9648-5.1602-1.9648-7.125 0.011718-1.9648 1.9727-1.9609 5.1602 0.011719 7.125l27.148 27.066 0.17969 56.492-46.199-46.055c-1.9727-1.9648-5.1602-1.9688-7.125 0.011719-1.9648 1.9727-1.9609 5.1602 0.011719 7.125l53.363 53.176 0.14062 43.945c-50.449-2.6836-90.844-45.039-91.004-96.867-0.20312-65.199 78.887-131.86 95.324-145 16.562 12.707 95.914 77.133 96.125 145.03 0.078126 26.199-9.9727 50.762-28.309 69.156z"></path>

      </g>
      </svg>