<svg id="svg" fill="#E27C33" stroke="#E27C33" width="100" height="100" version="1.1" viewBox="144 144 512 512" xmlns="http://www.w3.org/2000/svg">
    <g id="IconSvg_bgCarrier" stroke-width="0"></g>
    <g id="IconSvg_tracerCarrier" stroke-linecap="round" stroke-linejoin="round" stroke="#CCCCCC" stroke-width="0">
      <g xmlns="http://www.w3.org/2000/svg">
  <path d="m281.92 549.57c0 4.3477-3.5234 7.8711-7.8711 7.8711s-7.8711-3.5234-7.8711-7.8711 3.5234-7.8711 7.8711-7.8711 7.8711 3.5234 7.8711 7.8711"></path>
  <path d="m565.31 549.57c0 4.3477-3.5273 7.8711-7.875 7.8711s-7.8711-3.5234-7.8711-7.8711 3.5234-7.8711 7.8711-7.8711 7.875 3.5234 7.875 7.8711"></path>
  <path d="m642.71 450.73-62.977-94.465c-1.4609-2.1875-3.918-3.5039-6.5508-3.5039h-86.594v-55.105c0-4.3477-3.5234-7.8711-7.8711-7.8711h-90.984c-13.832-49.848-59.496-86.59-113.69-86.59-65.109 0-118.08 52.969-118.08 118.08 0 30.883 12.012 58.941 31.488 80.008v148.28c0 4.3477 3.5234 7.8711 7.8711 7.8711h32.199c3.7656 22.305 23.164 39.363 46.523 39.363s42.754-17.059 46.52-39.359l158.15-0.003906h32.199c3.7656 22.305 23.164 39.363 46.52 39.363 23.359 0 42.754-17.059 46.52-39.359l32.203-0.003906c4.3477 0 7.8711-3.5234 7.8711-7.8711v-94.465c0-1.5508-0.46094-3.0742-1.3203-4.3672zm-368.66-231.79c56.43 0 102.34 45.906 102.34 102.34 0 56.43-45.906 102.34-102.34 102.34s-102.34-45.906-102.34-102.34c0-56.43 45.906-102.34 102.34-102.34zm-70.848 196.58c19.762 14.895 44.25 23.84 70.848 23.84 65.109 0 118.08-52.973 118.08-118.08 0-5.3516-0.48047-10.578-1.1758-15.742h79.895v236.16h-150.28c-3.7656-22.305-23.164-39.359-46.52-39.359-23.359 0-42.754 17.059-46.52 39.359h-24.328zm70.848 165.54c-17.363 0-31.488-14.125-31.488-31.488 0-17.363 14.125-31.488 31.488-31.488s31.488 14.125 31.488 31.488c0 17.363-14.125 31.488-31.488 31.488zm283.39 0c-17.363 0-31.488-14.125-31.488-31.488 0-17.363 14.125-31.488 31.488-31.488s31.488 14.125 31.488 31.488c0 17.363-14.125 31.488-31.488 31.488zm70.852-39.359h-24.328c-3.7656-22.305-23.164-39.359-46.523-39.359s-42.754 17.059-46.52 39.359h-24.328v-173.18h82.379l59.32 88.973z"></path>
  <path d="m238.46 394.42c1.1133 0.54688 2.2891 0.80078 3.4531 0.80078 2.9141 0 5.7109-1.6211 7.0781-4.418 1.9102-3.9102 0.28906-8.6211-3.6172-10.527-22.438-10.957-36.934-34.113-36.934-59 0-24.875 14.492-48.031 36.914-58.988 3.9062-1.9062 5.5273-6.6211 3.6172-10.527-1.9062-3.9023-6.6211-5.5234-10.527-3.6172-27.789 13.578-45.75 42.285-45.75 73.133 0 30.859 17.969 59.57 45.766 73.145z"></path>
  <path d="m247.8 321.28c0 14.469 11.773 26.242 26.242 26.242s26.242-11.773 26.242-26.242c0-11.707-7.7617-21.535-18.371-24.902v-48.57c0-4.3477-3.5234-7.8711-7.8711-7.8711s-7.8711 3.5234-7.8711 7.8711v48.57c-10.609 3.3711-18.371 13.195-18.371 24.902zm26.242-10.496c5.7891 0 10.496 4.707 10.496 10.496 0 5.7891-4.707 10.5-10.496 10.5s-10.5-4.7109-10.5-10.5c0-5.7891 4.7109-10.496 10.5-10.496z"></path>
  <path d="m556.33 384.25h-46.125c-4.3477 0-7.8711 3.5234-7.8711 7.8711v55.105c0 4.3477 3.5234 7.8711 7.8711 7.8711h82.859c2.9023 0 5.5703-1.5977 6.9414-4.1602 1.3672-2.5586 1.2188-5.6641-0.39062-8.0781l-36.734-55.105c-1.4609-2.1875-3.918-3.5039-6.5508-3.5039zm-38.254 55.105v-39.359h34.039l26.238 39.359z"></path>
 </g>

      </g>
     <g id="IconSvg_iconCarrier">
      <g xmlns="http://www.w3.org/2000/svg">
  <path d="m281.92 549.57c0 4.3477-3.5234 7.8711-7.8711 7.8711s-7.8711-3.5234-7.8711-7.8711 3.5234-7.8711 7.8711-7.8711 7.8711 3.5234 7.8711 7.8711"></path>
  <path d="m565.31 549.57c0 4.3477-3.5273 7.8711-7.875 7.8711s-7.8711-3.5234-7.8711-7.8711 3.5234-7.8711 7.8711-7.8711 7.875 3.5234 7.875 7.8711"></path>
  <path d="m642.71 450.73-62.977-94.465c-1.4609-2.1875-3.918-3.5039-6.5508-3.5039h-86.594v-55.105c0-4.3477-3.5234-7.8711-7.8711-7.8711h-90.984c-13.832-49.848-59.496-86.59-113.69-86.59-65.109 0-118.08 52.969-118.08 118.08 0 30.883 12.012 58.941 31.488 80.008v148.28c0 4.3477 3.5234 7.8711 7.8711 7.8711h32.199c3.7656 22.305 23.164 39.363 46.523 39.363s42.754-17.059 46.52-39.359l158.15-0.003906h32.199c3.7656 22.305 23.164 39.363 46.52 39.363 23.359 0 42.754-17.059 46.52-39.359l32.203-0.003906c4.3477 0 7.8711-3.5234 7.8711-7.8711v-94.465c0-1.5508-0.46094-3.0742-1.3203-4.3672zm-368.66-231.79c56.43 0 102.34 45.906 102.34 102.34 0 56.43-45.906 102.34-102.34 102.34s-102.34-45.906-102.34-102.34c0-56.43 45.906-102.34 102.34-102.34zm-70.848 196.58c19.762 14.895 44.25 23.84 70.848 23.84 65.109 0 118.08-52.973 118.08-118.08 0-5.3516-0.48047-10.578-1.1758-15.742h79.895v236.16h-150.28c-3.7656-22.305-23.164-39.359-46.52-39.359-23.359 0-42.754 17.059-46.52 39.359h-24.328zm70.848 165.54c-17.363 0-31.488-14.125-31.488-31.488 0-17.363 14.125-31.488 31.488-31.488s31.488 14.125 31.488 31.488c0 17.363-14.125 31.488-31.488 31.488zm283.39 0c-17.363 0-31.488-14.125-31.488-31.488 0-17.363 14.125-31.488 31.488-31.488s31.488 14.125 31.488 31.488c0 17.363-14.125 31.488-31.488 31.488zm70.852-39.359h-24.328c-3.7656-22.305-23.164-39.359-46.523-39.359s-42.754 17.059-46.52 39.359h-24.328v-173.18h82.379l59.32 88.973z"></path>
  <path d="m238.46 394.42c1.1133 0.54688 2.2891 0.80078 3.4531 0.80078 2.9141 0 5.7109-1.6211 7.0781-4.418 1.9102-3.9102 0.28906-8.6211-3.6172-10.527-22.438-10.957-36.934-34.113-36.934-59 0-24.875 14.492-48.031 36.914-58.988 3.9062-1.9062 5.5273-6.6211 3.6172-10.527-1.9062-3.9023-6.6211-5.5234-10.527-3.6172-27.789 13.578-45.75 42.285-45.75 73.133 0 30.859 17.969 59.57 45.766 73.145z"></path>
  <path d="m247.8 321.28c0 14.469 11.773 26.242 26.242 26.242s26.242-11.773 26.242-26.242c0-11.707-7.7617-21.535-18.371-24.902v-48.57c0-4.3477-3.5234-7.8711-7.8711-7.8711s-7.8711 3.5234-7.8711 7.8711v48.57c-10.609 3.3711-18.371 13.195-18.371 24.902zm26.242-10.496c5.7891 0 10.496 4.707 10.496 10.496 0 5.7891-4.707 10.5-10.496 10.5s-10.5-4.7109-10.5-10.5c0-5.7891 4.7109-10.496 10.5-10.496z"></path>
  <path d="m556.33 384.25h-46.125c-4.3477 0-7.8711 3.5234-7.8711 7.8711v55.105c0 4.3477 3.5234 7.8711 7.8711 7.8711h82.859c2.9023 0 5.5703-1.5977 6.9414-4.1602 1.3672-2.5586 1.2188-5.6641-0.39062-8.0781l-36.734-55.105c-1.4609-2.1875-3.918-3.5039-6.5508-3.5039zm-38.254 55.105v-39.359h34.039l26.238 39.359z"></path>
 </g>

      </g>
      </svg>